<svg id="Layer_1" data-name="Layer 1" xmlns="http://www.w3.org/2000/svg" fill="#FFFFFF" viewBox="0 0 1366.95 817.66"><path d="M985.44,131.2q.07,69.51.13,139c0,2.78-.26,5.57-.35,8.35-.17,5.54-2.86,8.1-8.55,8.06-12.89-.1-25.79,0-38.68.22-5.16.09-7.81-1.86-7.78-7.26q.39-74.19.67-148.39Z" transform="translate(-276.21 -131.2)"/><path d="M276.21,711.75c1-.23,2-.53,3.06-.69,17.23-2.55,18.46-1.49,18.47,15.83,0,21.3.16,42.6-.08,63.9a100.27,100.27,0,0,0,2,18.69c1.91,10.66,13.06,18.38,27,18.87,9.08.32,18.18,0,27.27.14,4.18,0,9.09-.26,8.88,6-.19,5.5-4.72,5.47-8.51,5.27-16-.84-32.09,2.09-47.91-2.92-12.43-3.93-21.51-11.07-26.58-23.12-.7-1.66-1.58-3.09-3.53-3.47Z" transform="translate(-276.21 -131.2)"/><path d="M985.88,580.14c0,14.32.26,28.64-.08,43-.27,11.19-.6,11.24-12.21,11.34-11.19.1-22.38.08-33.57.07-9.06,0-11.68-2.54-11.67-11.77,0-26.53.22-53.07.3-79.6,0-15.83,0-15.11-16.09-14.67-26.55.72-53,2.88-79.45,4.79-23.31,1.68-46.52,4.5-69.71,7.6-21.45,2.87-42.82,6-64.14,9.76q-43.31,7.64-86,17.87a1140.47,1140.47,0,0,0-121,36.54,735.89,735.89,0,0,0-125.76,58.72A33.94,33.94,0,0,1,347.66,669c-16.42-.34-32.86,0-49.29,0-2.62,0-6.57,1.35-7.33-2-.58-2.55,2.69-4.51,5.13-6,16.42-9.91,33.28-19,50.48-27.46,51.06-25.25,104.22-44.83,159-60.49,38.61-11,77.61-20,117-27.64,65.58-12.68,131.76-20.2,198.32-25,23-1.64,46-2.12,69.07-2.9,10.8-.36,21.52-2.51,32.37-1.52,5.39.49,6.48-2.41,6.33-7-.24-7.33-.21-14.66-.23-22,0-9.62,1.89-11.46,11.23-11.5,11.53-.05,23.07-.53,34.6-.32,10.5.18,12.78,2.83,12.56,13.29-.14,6.63-.33,13.26-.84,19.87-.39,5,.62,7.5,6.57,7.67,27.56.78,55.12,1.92,82.67,3.18,29,1.33,57.81,4,86.62,7.25,19.79,2.22,39.67,3.91,59.35,6.89,30.68,4.64,61.35,9.41,91.72,16,21.14,4.6,42.23,9.29,63.22,14.57a1030.42,1030.42,0,0,1,109.74,34c45.46,17,89.55,37,131.12,62.17,1.19.73,2.57,1.13,3.75,1.86,1.84,1.15,3.67,2.85,3,5-.76,2.37-3.4,1.92-5.46,1.92l-55.6-.06c-5.48,0-10.1-2.38-14.63-5.13C1505,637.48,1458.84,618,1411.48,601a1086.07,1086.07,0,0,0-117.22-34.56c-35-8.28-70.3-14.8-105.84-20.47-52.85-8.42-106-12.73-159.33-16.48-11.49-.8-23.06-.43-34.55-1.26-7.26-.53-8.78,2.42-8.58,9,.43,14.31.13,28.64.13,43Z" transform="translate(-276.21 -131.2)"/><path d="M928.76,380.64c0-21.63,0-43.27,0-64.9,0-3.1.76-6.19,1-9.3.5-5.8,3.84-7.83,9.27-7.08,13.21,1.82,26.51.7,39.76,1,4.44.09,6.51,1.31,6.69,5.72.23,5.58.91,11.15.85,16.72-.4,40.13-1,80.25.31,120.37.51,15.08-1.34,16.9-16.34,17.22-11.17.24-22.36-.08-33.51.35-4.07.16-5.64-1.4-6.66-4.86a36,36,0,0,1-1.43-10.31q.08-32.44,0-64.9Z" transform="translate(-276.21 -131.2)"/><path d="M1453.31,790.31c0-12.22.14-24.44,0-36.66-.21-14.11-6.83-23.15-19.77-27.57-7.91-2.69-10.11-1.26-10.16,7.28-.09,17.1,0,34.21.08,51.32,0,5.23.11,10.47,0,15.71-.22,12-7,16.59-18.52,12.47-5-1.78-4-6-4-9.7q-.11-33.51-.07-67c0-2.1,0-4.19,0-6.29-.06-4.3-2.28-5.48-6.18-4.24C1384.56,728.82,1371,737,1371.42,754c.6,24.42.2,48.87.1,73.31,0,10.85-7.14,15.41-17.2,11.48-3.65-1.43-4.24-4.28-4.24-7.58.06-27.23-.41-54.47.42-81.68.44-14.38,11.26-22.63,22.53-29.42a62.64,62.64,0,0,1,18.43-7.21c6-1.37,10-4.34,9.39-11.45-.64-7.76,4.23-8.85,10.74-8.85,6.85,0,12.22,1.17,11.72,9.34-.39,6.38,2.81,8.12,8.34,9.42,12.33,2.89,23.81,7.64,32.8,17.28,7.23,7.76,11.47,16.46,11.43,27.2-.08,24.79,0,49.57-.06,74.36,0,9.29-.52,9.6-10.45,9.6-10.64,0-11.84-.85-11.93-9.66-.14-13.27,0-26.54,0-39.81Z" transform="translate(-276.21 -131.2)"/><path d="M552.2,781.64c0-15.35-.43-30.72.18-46,.32-8.15-3.08-10.38-10.36-10.14-8.37.29-16.76-.08-25.14.13-5.61.14-8.12-1.72-8.15-7.82,0-6.49,3.28-7.47,8.51-7.46q45,.09,90.09-.06c5.61,0,9.39,1,9.27,8-.12,7.37-4.64,7.38-9.85,7.32-7.68-.1-15.39.33-23-.13-7.34-.43-9.57,2.39-9.49,9.65.34,30.69.19,61.39.14,92.08,0,11.39-1.56,12.58-12.65,12.2-6.55-.22-9.51-3-9.46-9.59.13-16,0-32.09,0-48.13Z" transform="translate(-276.21 -131.2)"/><path d="M1155.55,784.14c1.19,9-2.26,20,2.68,30.37,4.56,9.58,9.46,12.61,19.74,11.58,11.39-1.14,15.67-4.77,17.93-15.36,2.5-11.73.78-23.63,1.22-35.45.19-4.87,0-9.76.1-14.64.13-8.61,6.15-8.44,12.43-8.77,6.5-.34,9.93,1.57,9.79,8.58-.28,15,.72,30.06-.75,44.91-1.41,14.36-9.83,25-23.6,30.55a51.13,51.13,0,0,1-42.58-1.63c-15.12-7.36-17.85-22.37-19-37.22-.87-11.78-.64-23.67-.43-35.5.14-8,2.83-9.37,12.61-9.73,7.4-.28,10.11,2.76,9.87,9.79S1155.55,775.56,1155.55,784.14Z" transform="translate(-276.21 -131.2)"/><path d="M729.76,809.08c0,8.48-.1,15.46,0,22.44.1,5.16-2,8.05-7.4,7.69-5.2-.36-13.4,2.34-13.86-5.3-1.17-19.7-3.66-39.8,4.21-58.88,4.73-11.47,13.78-17.91,25.87-20.45,29.93-6.29,56.21,6.24,55.66,41.71-.17,11.17.19,22.34-.1,33.5-.22,8.47-1.88,9.41-11.23,9.55-7,.1-11.51-1.86-11.4-9.91.17-12.21.09-24.43,0-36.64a68.43,68.43,0,0,0-.8-11.46c-1.67-9.19-6.14-13.88-13.64-14.92-12.24-1.72-19.12,1.38-23.89,10.21C727.32,787.52,730.88,799.26,729.76,809.08Z" transform="translate(-276.21 -131.2)"/><path d="M856.82,802.37c0-9.76-.16-19.53.07-29.29.14-6.15-2.08-9.3-8.59-8.47a19.36,19.36,0,0,1-3.14,0c-4.39-.13-7.59-1.69-7.3-6.74.25-4.36,3.1-5.56,7.1-5.94,11.9-1.14,11.89-1.26,11.87-13.14,0-7.32,0-14.65-.08-22-.08-4.35,2-6.09,6.21-6.57,13.32-1.52,15.91.66,15.94,14.19,0,6.63.14,13.26-.1,19.88-.19,5.22,1.88,7.87,7.23,7.8a54.68,54.68,0,0,1,6.27.24c3.6.37,5.82,2.19,5.69,6.09-.12,3.25-2,5-5,5.79-4.68,1.28-11.57-2.21-13.56,4.72-1.3,4.54-.53,9.69-.54,14.56-.05,15.34.06,30.69-.05,46-.07,9.68-1,9.84-12.31,10.4-8.21.41-10.26-2.89-9.81-10.39C857.22,820.53,856.81,811.44,856.82,802.37Z" transform="translate(-276.21 -131.2)"/><path d="M1087,840c-4.87-.29-9.77-.43-14.63-.94-2.75-.28-5.63-.82-7.73-2.86-2.65-2.57-4.57-5.88-2.61-9.33s5.49-2.25,8.3-.6c6.16,3.61,12.87,2.5,19.46,2.63,3.33.06,6-1.39,8.75-3.08,8.73-5.46,8.73-13.85-.39-18.4A203.62,203.62,0,0,0,1078,799c-11-4.1-16.88-12.28-17.86-23.48-.85-9.68,6.62-19,18.86-22.3,11.84-3.22,24.11-3.77,35.72,2.25,2.89,1.5,5.42,3.19,6.79,6.2,1.06,2.3,1.59,4.84,0,7-2,2.6-4.34.94-6.56,0-3.53-1.51-7-3-10.64-4.39-4.31-1.62-8.9-2.56-13.38-1.62-4.81,1-10,3.05-11.46,8-1.68,5.78,3.52,8.94,7.59,11.22,6.65,3.73,14,6.15,20.8,9.66,13.84,7.16,18.25,15.6,15.43,28.46-2.3,10.49-13.9,19.13-26.73,19.79-3.14.17-6.3,0-9.44,0Z" transform="translate(-276.21 -131.2)"/><path d="M1231.92,810.3c0-6.27-.25-12.54,0-18.79,1.37-29.87,31.08-41.75,54.08-39.09,3.55.41,5.84,2.29,5.7,6.15-.17,4.53-3.42,4.66-6.72,4.32-4.67-.5-9,1-13.27,2.35-11.7,3.75-17.22,10.64-17.54,23-.33,12.87,0,25.77-.12,38.65-.13,11-7.9,16-18.2,12-3.84-1.48-3.84-4.61-4-7.67-.22-3.47-.1-7-.11-10.44s0-7,0-10.45Z" transform="translate(-276.21 -131.2)"/><path d="M602.45,809.19c-.29-9.27-1-21.25,4.2-32.31,9.58-20.48,32.25-25.67,49.14-24.77,3.64.2,6.15,1.83,6.11,5.66,0,4.67-3.16,5-7.16,5.31-11.73.85-22.67,3.32-28.08,15.95a27.23,27.23,0,0,0-1.92,11.12c0,12.88.06,25.77,0,38.65-.09,9.6-.92,10.35-9.93,10.46-10.26.12-11.94-1.27-12.27-10.79C602.3,822.9,602.45,817.33,602.45,809.19Z" transform="translate(-276.21 -131.2)"/><path d="M1583.37,809c0-6.27-.3-12.57.06-18.82.94-16.29,12.88-30.43,28.6-34.7,7.77-2.12,15.49-4.36,23.64-3.29,3.51.45,7.47,1.45,7.49,5.8,0,4.79-4.13,4.64-7.67,4.94-22.93,2-30.69,10.41-30.7,33.27,0,11.16.15,22.32-.1,33.48-.19,8.38-2,9.52-11.16,9.7-6.77.13-10.7-1.9-10.4-9.45.27-7,.06-13.95.06-20.93Z" transform="translate(-276.21 -131.2)"/><path d="M830.47,794.82c0,11.86-.22,23.74.08,35.6.18,7-2.83,9.18-9.49,8.87-6.14-.28-12.61.53-12.66-8.3-.13-24.43-.07-48.86-.11-73.3,0-2.29.73-4.35,2.85-5.14a25.08,25.08,0,0,1,16.4-.34c4.76,1.51,2.83,6.58,2.9,10.15.23,10.81.08,21.64.08,32.46Z" transform="translate(-276.21 -131.2)"/><path d="M672.55,794.55c0-11.49.31-23-.11-34.48-.3-8.21,4.35-8.8,10.66-8.77s10.77.29,10.63,8.68c-.4,23,0,46-.18,69-.08,9.23-1.87,10.2-11.49,10.43-7.59.17-9.66-3.65-9.55-10.35C672.69,817.55,672.56,806.05,672.55,794.55Z" transform="translate(-276.21 -131.2)"/><path d="M1008.47,923.7c0,6.61.07,13.22-.05,19.83,0,1.69-.51,3.78-2.52,4.07S1003,946,1002,944.67c-2-2.59-2.33-5.77-3.28-8.74-.41-1.27-.83-2.87-2.45-2.85s-1.94,1.71-2.33,3c-.1.33,0,.7-.14,1-1.13,3.94.85,11-5.46,10.25-4.45-.54-2.74-7.09-2.83-11-.22-10.09-.11-20.2-.08-30.29,0-3.11-.39-6.79,4.05-7.14,3.57-.29,4.45,2.61,5,5.48a25.47,25.47,0,0,0,1.18,4c.77,2,2.26,4.18,4.29,4.08,3.08-.16,1.62-3.14,1.91-4.94a41.24,41.24,0,0,0,.11-4.17c.12-2.35,1.19-4.29,3.67-4.12s3.2,2.37,3.21,4.62c0,6.61,0,13.23,0,19.85Z" transform="translate(-276.21 -131.2)"/><path d="M1227.43,920c0,5.57.47,11.2-.11,16.71-.82,7.71-5.67,12.11-12,11.7-7.32-.48-10.39-5.36-10.65-11.84-.42-10.79-.21-21.6-.23-32.4,0-2.66.69-5.13,4-4.79,2.47.25,3.14,2.43,3.16,4.66.07,9.41.07,18.82.21,28.23,0,3-.32,7.1,4.11,7.06s4-4.08,4.07-7.13c.12-8.71,0-17.43.11-26.14,0-3.11-.27-7.09,4.19-6.95,4.76.15,3.35,4.45,3.48,7.3.21,4.52.06,9.06.06,13.59Z" transform="translate(-276.21 -131.2)"/><path d="M930.49,923c.19,3.83.27,7.67.61,11.49.28,3.24,2.16,5.38,5.51,4.79,3.58-.64,3.61-3.86,3.46-6.67a9.17,9.17,0,0,0-1.41-3.87c-1.16-2-4.43-3.62-2.14-6.13s5.91-1.68,8.92-1.06c3.25.66,2.75,3.49,2.56,5.93-.34,4.52-.13,9.22-2.37,13.3-2,3.56-3.66,7.64-9,7.61A10.85,10.85,0,0,1,926,941.25c-4.57-12.47-5.36-25.23.19-37.73,1.93-4.36,5.78-5.68,10.37-5.54,3.72.1,6.92.88,8.63,4.63.74,1.65,1.37,3.28,0,4.86s-2.93,1.65-4.58.44c-7.64-5.62-9-.3-9.67,5.68a87,87,0,0,0-.06,9.42Z" transform="translate(-276.21 -131.2)"/><path d="M1024.33,801.11c-4.52,0-9-.08-13.57,0-5.19.11-7.67-2.32-7.75-7.49-.09-5.5,2.14-8.47,8-8.37,9.4.15,18.8,0,28.2.13,5.23.07,8.85,2.41,8.86,8.05,0,5.87-4.06,7.58-9.11,7.68-4.88.11-9.75,0-14.63,0Z" transform="translate(-276.21 -131.2)"/><path d="M1311.24,801.1c-4.52,0-9,0-13.56,0-5.55.07-7.34-3.43-7.29-8.08,0-4.84,2.44-7.75,7.75-7.69,9.4.09,18.79,0,28.18,0,5.09,0,7.54,2.42,7.62,7.68.09,5.72-2.37,8.33-8.09,8.18-4.87-.13-9.74,0-14.61,0Z" transform="translate(-276.21 -131.2)"/><path d="M973.27,725.55c0,3.25-2.13,4.31-4.53,5.15-9.77,3.43-19.51,6.93-29.3,10.32-3.16,1.1-6.43,1.18-8.17-2.23-2-3.95,1.61-5.61,4-7.36,7.21-5.4,14.47-10.78,22-15.75,2.61-1.72,5.78-5.51,9.17-2.39S972.7,720.67,973.27,725.55Z" transform="translate(-276.21 -131.2)"/><path d="M668.74,724.71c.1-7.9,6-14.05,13.66-14.12,6.92-.06,14.48,7.18,14.43,13.81-.05,7.11-7.94,14.4-15.38,14.21C674.64,738.44,668.64,731.89,668.74,724.71Z" transform="translate(-276.21 -131.2)"/><path d="M806.44,724.38c.06-8.18,5.67-14,13.27-13.82,7,.18,14.17,7.43,13.91,14.1s-7.47,13.74-14.39,14C811.53,738.84,806.37,733.1,806.44,724.38Z" transform="translate(-276.21 -131.2)"/><path d="M759.35,921.9c0-4.87.29-9.76-.07-14.6-.51-6.92,2.64-9.63,9.23-9,2.26.22,5.56-.92,6.07,2.33.43,2.7-2.81,2.23-4.49,3.14-5.84,3.15-6.5,11.92-.7,14.87s8.65,4.2.21,7.46c-5.65,2.18-5.74,10.9-.41,14,2.28,1.32,5.82,1,5.56,4.91-.23,3.46-3,3.38-5.43,3.37-3.38,0-7.36.84-8.68-3.72a35.24,35.24,0,0,1-1.35-8.16c-.21-4.86-.06-9.73-.06-14.6Z" transform="translate(-276.21 -131.2)"/><path d="M1163.37,901.26a5.55,5.55,0,0,1-3.54,3.64c-7.35,3.2-5.26,7.72-1.73,12.42,2.5,3.32,5.52,6.36,7.47,10,4,7.27,1.33,16.78-5.45,20-3.43,1.64-7.7,2.74-9.81-2.12s2.17-4.39,5-5.52c5.44-2.21,6-6.85,1.56-12.52-3.2-4.08-7.46-7.37-9.17-12.52-2.89-8.67,3.21-17.74,11.23-16.72C1161,898.17,1163,898.77,1163.37,901.26Z" transform="translate(-276.21 -131.2)"/><path d="M1047.76,921.62c0-5.22.14-10.44,0-15.65-.2-6,2.86-8.13,8.4-7.68,2.34.19,5.61-.79,6.59,1.79,1.39,3.64-2.73,3-4.45,4.21-5,3.55-5,10.36.52,14.43,3.86,2.83,6.87,4.16.15,7.4-6,2.86-6.11,9.8-.63,13.74,2.37,1.71,5.18,2.78,4,6.18-1.23,3.59-4.69,2-7.25,2.31-3.67.45-6.42-1.08-6.57-4.88-.3-7.27-.09-14.56-.09-21.85Z" transform="translate(-276.21 -131.2)"/><path d="M817.74,928.22c-1.42-10.28,2-18.67-4.89-25.37-1.85-1.79,0-4.13,2.43-4.32a67.59,67.59,0,0,1,11.47,0c3,.29,4.8,2.41,2.26,4.92-4.68,4.64-3.49,10.28-3.57,15.74-.12,8,.61,16-.72,24-.31,1.9-.52,4.53-3.36,4.51-2.66,0-3.45-2.42-3.53-4.4C817.59,937.43,817.74,931.51,817.74,928.22Z" transform="translate(-276.21 -131.2)"/><path d="M459.87,827.87c.21-6.27.05-12.55.05-18.82h-.18c0-7.32.4-14.66-.09-21.95C459,777,455.12,767.62,447,761.64c-15-11.1-39.86-14.34-58.08-2.15-16.12,10.79-17.95,27.42-16.36,44.57,2.62,28.38,34.37,44.69,58.24,30.18,3.59-2.19,5-3.28,7.87,1.16,4.12,6.29,11.51,4.41,17.31,3.22C461.15,837.57,459.73,831.85,459.87,827.87ZM435.27,812a20.57,20.57,0,0,1-19.64,14.36c-9,0-17.51-5.19-19.12-13s-3.57-15.62-1.92-23.71c.41-2,.64-4.11.94-6.17,1.82-12.39,7.61-17.33,20.3-17.32,19.14-1.74,22.37,13.51,22.94,29.66C439,801.15,436.94,806.72,435.27,812Z" transform="translate(-276.21 -131.2)"/><path d="M1571.11,793.37a41,41,0,0,0-8-23.27c-9.92-13.21-23.82-18.05-39.63-15.87-16.85,2.33-29.2,12-34.19,28.36-5.4,17.75-1.35,33.78,13.1,46.38,12.31,10.75,28.76,13.53,45.82,6.16,3.33-1.44,5.22-3.66,4.12-7.29s-4.24-2.88-7-2.41c-2.4.41-4.77,1.1-7.18,1.36-13.55,1.46-21.84-3.39-27.35-15.87-3.08-7-2.38-8.24,5.72-8.51,7.67-.26,15.36-.06,23-.06v-.07c7.68,0,15.36-.16,23,.05C1569,802.52,1571.38,799.37,1571.11,793.37Zm-31.67-4.58c-3.83.11-7.68,0-11.51,0v0c-2.8,0-5.59,0-8.38,0-11.34-.17-12.54-2-7-12,3.74-6.73,9.11-11.05,17.67-10.68,8.19.35,12.67,5.57,16.18,11.56C1550.48,784.67,1547.75,788.54,1539.44,788.79Z" transform="translate(-276.21 -131.2)"/><path d="M990,792.12c-.53-14.74-13.25-33.29-32.42-37.47-14.9-3.25-36.13,3.73-45.37,18.75-9.55,15.53-7.56,36.22,3.81,50.76,8.51,10.87,31.45,20,46.24,12.18,4.15-2.21,11.18-2,8.8-8.65-2.1-5.86-7.84-1.7-11.91-1.06-14.67,2.29-25.17-3.67-30-16.54-2.19-5.88-.37-7.72,5.28-7.68,7.68.05,15.36,0,23,0v-.08c7.68,0,15.36-.23,23,.07C988.08,802.7,990.29,799,990,792.12ZM958.6,788.8c-.7,0-1.4,0-2.09,0H947.1v-.1c-4.52,0-9.06.12-13.58,0-4.68-.15-5.75-2-4-6.76,2.9-8.06,7-14.38,16.18-15.51,7.7-.95,16.14,4,19.63,11.08C968.87,784.74,966.67,788.46,958.6,788.8Z" transform="translate(-276.21 -131.2)"/><path d="M660.91,936c-.81-8.82-1.62-17.65-.12-26.5a7.47,7.47,0,0,0-.35-3.09c-1.82-6.37-6.27-8.53-12.62-8.19-6.81.36-6.28,5.11-6.29,9.67s0,9,0,13.52h.3c0,6.59-.48,13.22.13,19.74.67,7.33,6.19,9.75,12.54,5.84C658.45,944.56,661.39,941.28,660.91,936Zm-11,1.89c-3.28-.57-1.91-3.8-2.32-5.83.18-2.15,0-4.92,2.83-4.59s3.11,3.3,3.21,5.7C653.72,935.73,653.14,938.45,649.9,937.9Zm.5-21.56c-2.81.15-2.8-2.53-2.77-4.52s.13-4.65,2.86-4.58c2.33.06,3.16,2.28,3.28,4.52C653.49,913.92,652.68,916.22,650.4,916.34Z" transform="translate(-276.21 -131.2)"/><path d="M1287.49,906.4c-2-6.42-8.59-9.24-16.18-8-6.77,1.08-5.5,6.16-5.54,10.46-.1,10.09-.24,20.19.19,30.27.42,9.62,5.28,11.73,14,7.3,9.69-5,9.28-13.71,9.52-23.82A46.35,46.35,0,0,0,1287.49,906.4Zm-4.87,21.37c-.35,4.58-.95,10.83-6,10.55-5.65-.31-2.55-6.73-2.92-10.39-.55-5.5-.18-11.1-.14-16.65,0-2.11.09-4.87,2.35-5.29,2.67-.51,4.55,1.91,5.12,4.28,1,4.36,1.51,8.86,2,12C1282.84,925,1282.73,926.39,1282.62,927.77Z" transform="translate(-276.21 -131.2)"/><path d="M720.29,942.75a23.22,23.22,0,0,0-2-7c-3-5.93-4.45-11.36.26-17.48,2.55-3.3,1.87-8.17,1-12.22-1.52-6.85-6.95-8-13-7.74-6.46.23-6.86,4.6-6.75,9.5.1,4.53,0,9.07,0,11.4.43,9.51-.71,16.86.76,24.11.32,1.63,1,3.71,2.88,3.95,2.17.28,2.47-1.89,3.06-3.51.8-2.18-.92-5.88,1.89-6.43,3.35-.66,3.12,3.89,5.12,5.58a11.32,11.32,0,0,1,1.22,1.7c1,1.25,1.47,3.58,3.72,2.65C720.27,946.52,720.53,944.41,720.29,942.75Zm-10.53-26.68c-3,.3-2.86-2.26-2.87-4.25,0-1.68.07-3.92,2.21-4,2.66-.16,2.84,2.33,3.31,3.85C712.15,913.85,711.64,915.87,709.76,916.07Z" transform="translate(-276.21 -131.2)"/><path d="M888.35,943c-2.73-13.21-5.6-26.39-8.35-39.6-.5-2.39-1.85-3.75-4.17-3.86-2.49-.12-3.74,1.59-4.2,3.78-2.71,12.88-5.36,25.76-8.23,39.62-.16,2.26.32,4.18,1.68,4.5,2.06.49,3.1-1,4.2-2.39,6.34-7.77,6.37-7.79,12.75.25,1.34,1.69,2.7,3.56,5.05,2.36C888.81,946.74,888.69,944.62,888.35,943Zm-11.49-15.19c-.52.67-1.12.76-1.67.15A1.08,1.08,0,0,1,875,927a1,1,0,0,1,.78-.53C876.65,926.44,877,926.94,876.86,927.78Z" transform="translate(-276.21 -131.2)"/></svg>