<?xml version="1.0" encoding="UTF-8"?>
<svg width="302px" height="214px" viewBox="0 0 302 214" version="1.1" xmlns="http://www.w3.org/2000/svg" xmlns:xlink="http://www.w3.org/1999/xlink">
    <title>Morbihan_logo_Departement_mono_EPS</title>
    <defs>
        <polygon id="path-1" points="0.06 -0.004 301.007 -0.004 301.007 213 0.06 213"></polygon>
    </defs>
    <g id="Morbihan_logo_Departement_mono_EPS" stroke="none" stroke-width="1">
        <path d="M103.279,193.787 L103.217,193.787 C102.389,190.856 98.847,181.942 96.643,176.348 L91.327,176.348 L91.327,199.117 L94.784,199.117 L94.784,181.355 L94.839,181.355 C97.075,187.697 99.398,193.426 101.691,199.117 L104.012,199.117 C106.428,193.426 108.87,187.697 111.223,181.355 L111.284,181.355 L111.284,199.117 L115.594,199.117 L115.594,176.348 L110.582,176.348 C108.135,181.942 104.285,190.725 103.279,193.787" id="Fill-1" fill="white"></path>
        <path d="M128.578,197.104 C125.677,197.104 124.88,193.652 124.88,190.791 C124.88,188.092 125.799,184.874 128.578,184.874 C131.42,184.874 132.307,188.092 132.307,190.791 C132.307,193.652 131.545,197.104 128.578,197.104 Z M128.578,182.461 C124.481,182.461 120.572,185.52 120.572,190.791 C120.572,195.836 123.811,199.509 128.578,199.509 C133.38,199.509 136.617,195.836 136.617,190.791 C136.617,185.52 132.708,182.461 128.578,182.461 L128.578,182.461 Z" id="Fill-2" fill="white"></path>
        <path d="M146.062,184.445 L145.235,185.717 L145.177,185.717 L145.177,182.85 L141.142,182.85 L141.142,199.117 L145.203,199.117 L145.203,191.087 C145.203,187.569 146.582,186.37 147.986,186.37 C148.815,186.37 149.242,186.56 149.913,186.923 L151.44,183.927 C150.585,182.986 149.606,182.461 148.689,182.461 C147.437,182.461 146.55,183.762 146.062,184.445" id="Fill-3" fill="white"></path>
        <path d="M162.531,196.907 C159.784,196.907 158.688,194.141 158.688,191.184 C158.688,187.439 160.029,185.066 162.597,185.066 C164.888,185.066 166.05,187.864 166.05,190.663 C166.05,193.524 165.132,196.907 162.531,196.907 Z M163.603,182.461 C161.767,182.461 159.808,183.438 158.744,185.098 L158.688,185.098 L158.688,175.208 L154.62,175.208 L154.62,199.117 L158.688,199.117 L158.688,197.104 C159.808,198.532 161.375,199.509 163.265,199.509 C167.603,199.509 170.358,195.284 170.358,190.629 C170.358,187.053 168.428,182.461 163.603,182.461 L163.603,182.461 Z" id="Fill-4" fill="white"></path>
        <path d="M176.828,175.469 C175.458,175.469 174.483,176.736 174.483,177.977 C174.483,179.375 175.458,180.707 176.89,180.707 C178.394,180.707 179.337,179.375 179.337,177.977 C179.337,176.702 178.239,175.469 176.828,175.469" id="Fill-5" fill="white"></path>
        <polygon id="Fill-6" fill="white" points="174.877 199.117 178.943 199.117 178.943 182.85 174.877 182.85"></polygon>
        <path d="M193.581,182.461 C191.655,182.461 189.731,183.21 188.353,184.778 L188.353,175.208 L184.32,175.208 L184.32,199.117 L188.382,199.117 L188.382,189.429 C188.382,186.759 189.946,185.356 191.931,185.356 C194.04,185.356 194.984,186.855 194.984,189.134 L194.984,199.117 L199.048,199.117 L199.048,188.65 C199.048,184.549 197.154,182.461 193.581,182.461" id="Fill-7" fill="white"></path>
        <path d="M209.501,196.61 C208.523,196.61 207.671,195.64 207.671,194.208 C207.671,192.35 208.675,191.118 210.663,190.464 L212.923,189.685 C213.229,194.462 211.119,196.61 209.501,196.61 Z M206.108,186.725 C207.182,185.748 208.403,185.066 210.149,185.066 C211.456,185.066 212.708,186.01 212.923,187.505 L209.319,188.65 C205.767,189.717 203.664,191.476 203.664,194.558 C203.664,197.557 205.652,199.509 208.036,199.509 C209.437,199.509 210.816,198.501 211.941,197.557 L212.863,196.743 C212.863,197.624 212.951,198.563 213.259,199.117 L217.568,199.117 C217.082,197.983 216.929,196.449 216.929,195.146 L216.929,188.514 C216.929,183.438 213.471,182.461 210.663,182.461 C208.552,182.461 206.692,183.016 204.795,184.678 L206.108,186.725 L206.108,186.725 Z" id="Fill-8" fill="white"></path>
        <g id="Group-12" transform="translate(0.000000, 1.000000)">
            <mask id="mask-2" fill="white">
                <use xlink:href="#path-1"></use>
            </mask>
            <g id="Clip-10"></g>
            <path d="M226.158,188.429 C226.158,185.759 227.719,184.356 229.702,184.356 C231.812,184.356 232.755,185.855 232.755,188.134 L232.755,198.117 L236.82,198.117 L236.82,187.65 C236.82,183.549 234.922,181.461 231.347,181.461 C229.427,181.461 227.501,182.21 226.127,183.778 L226.127,181.85 L222.093,181.85 L222.093,198.117 L226.158,198.117 L226.158,188.429" id="Fill-9" fill="white" mask="url(#mask-2)"></path>
            <path d="M247.33,211 L80.669,211 L80.669,141.086 C86.376,131.318 94.824,118.185 102.223,112.125 C102.223,112.125 98.326,156.841 135.091,155.781 C168.883,154.792 195.316,135.04 247.33,84.972 L247.33,110.183 C235.428,121.222 221.649,132.814 204.827,145.448 C204.827,145.448 223.796,140.715 247.33,127.323 L247.33,211 Z M80.669,1.996 L247.33,1.996 L247.33,58.306 C245.022,60.792 242.339,63.408 239.163,66.526 C239.177,66.833 239.172,66.658 239.179,66.967 C239.179,67.061 239.183,67.138 239.187,67.213 C239.195,67.325 239.201,67.437 239.201,67.548 C239.201,84.88 225.124,98.98 207.82,98.98 C206.214,98.98 204.554,98.835 202.743,98.537 C202.444,98.488 202.446,98.485 202.151,98.428 C195.678,103.498 188.858,108.948 180.357,114.819 C159.86,128.974 122.118,140.735 122.118,110.839 C122.118,80.505 135.045,62.922 145.864,50.694 L142.507,30.422 L140.729,32.116 C140.729,32.116 107.41,64.64 80.411,106.128 C81.545,66.589 105.108,36.245 105.108,36.245 C96.497,41.138 88.739,46.698 80.669,53.536 L80.669,1.996 Z M301.007,79.16 L295.944,57.083 C295.944,57.083 280.545,79.339 249.326,108.339 L249.326,83.049 C253.285,79.229 258.538,74.252 262.806,70.085 L260.294,42.465 C260.294,42.465 256.858,47.948 249.326,56.123 L249.326,-0.004 L78.672,-0.004 L78.672,55.251 C34.994,93.165 0,153.144 0,153.144 L23.712,153.144 C33.304,135.524 57.713,105.176 57.713,105.176 C53.437,131.875 55.544,150.989 55.544,150.989 L74.184,152.549 C74.184,152.549 76.482,148.446 78.672,144.589 L78.672,213 L249.326,213 L249.326,126.147 C265.483,116.729 285.905,101.401 301.007,79.16 L301.007,79.16 Z" id="Fill-11" fill="white" mask="url(#mask-2)"></path>
        </g>
        <path d="M237.508,68.546 C237.508,84.732 224.387,97.853 208.202,97.853 C192.016,97.853 178.895,84.732 178.895,68.546 C178.895,52.361 192.016,39.24 208.202,39.24 C224.387,39.24 237.508,52.361 237.508,68.546" id="Fill-13" fill="white"></path>
    </g>
</svg>