<svg xmlns="http://www.w3.org/2000/svg" viewBox="0 0 165.82 55.64"><title>ouest-france_black</title><path fill="white" d="M151.35,8.81V24.67H133v-2.4h16V8a24.57,24.57,0,0,0-16,46.37V38.65h18.37v2.4h-16V55.22a24.57,24.57,0,0,0,16-46.41Z" transform="translate(-1.06 -1.29)"/><path fill="white" d="M26.68,7.73c7.46,0,10.9,5.16,10.9,11.46S33.9,30.84,26.68,30.84c-8.22,0-11.09-5.72-11.09-11.65C15.59,12,19.69,7.73,26.68,7.73Zm0,19.36c4.69,0,6.22-5.2,6.22-7.9,0-2.24-1.3-7.71-6.22-7.71-4.62,0-6.62,3.89-6.62,7.71C20.06,22,21.3,27.09,26.68,27.1Z" transform="translate(-1.06 -1.29)"/><path fill="white" d="M54.15,30.47v-3l-.09,0a7.47,7.47,0,0,1-6.64,3.46c-4.62,0-8.22-2.4-8.22-8.12V8.38h5V22.75c0,3.62,2.16,4.62,4.52,4.62,5.18,0,5.26-4.87,5.26-7v-12h4.74V30.47Z" transform="translate(-1.06 -1.29)"/><path fill="white" d="M81.3,22.07c-.6,4.56-3.52,8.43-10.14,8.43s-10.5-4.61-10.5-10.88S63.89,7.73,71.12,7.73c6.77,0,10.49,4.78,10.49,12.46H65.28c0,3.13,1.32,6.74,6,6.74a5.37,5.37,0,0,0,5.65-4.87Zm-4.56-5c-.2-3-2.08-5.88-5.55-5.88a5.8,5.8,0,0,0-5.9,5.7q0,.09,0,.18Z" transform="translate(-1.06 -1.29)"/><path fill="white" d="M112.63,48.1c-.59,4.56-3.52,8.43-10.14,8.43S92,51.94,92,45.67s3.23-11.89,10.46-11.89c6.77,0,10.48,4.79,10.48,12.46H96.62c0,3.13,1.32,6.74,6,6.74a5.37,5.37,0,0,0,5.65-4.88Zm-4.57-5c-.2-3-2.08-5.88-5.55-5.88a5.79,5.79,0,0,0-5.9,5.68q0,.1,0,.2Z" transform="translate(-1.06 -1.29)"/><path fill="white" d="M95.63,13.94c0-1-1.09-2.85-4.36-2.85-1.28,0-4.46-.06-4.46,2.47,0,2.38,2.43,2.57,6.21,3.28,4.54.86,8.19,1.85,8.19,6.66,0,4.48-4.19,7-9.48,7-10.18,0-9.56-5.85-9.69-8.4h4.41c.13,1.7-.33,4.84,5.23,4.84,2.82,0,4.78-.64,4.78-3s-2-2.86-5.85-3.4c-5.57-.8-8.22-2.58-8.22-6.82,0-4.77,4.66-6.14,9.28-6.14,8.22,0,8.77,6.06,8.77,6.41Z" transform="translate(-1.06 -1.29)"/><path fill="white" d="M108.58,11.59V24.91c0,1.7,1.17,1.7,2,1.7h2.19V30h-5.55c-1.2,0-3.16-1.49-3.16-4.11V11.59h-3.58V8.38h3.58V1.29h4.55V8.38h4.16V11.6Z" transform="translate(-1.06 -1.29)"/><path fill="white" d="M9.23,38.24v18H4.69v-18H1.06V34.56H4.69V31.07a4.73,4.73,0,0,1,4.77-4.69h4.32v3.88H11.36c-1.5,0-2.13.55-2.13,2.29v2h4.55v3.68Z" transform="translate(-1.06 -1.29)"/><path fill="white" d="M20.36,56.28H16.14V34.56h4.22v3.82h0a7.4,7.4,0,0,1,6.58-4.27h2v4.14H27.06a6.47,6.47,0,0,0-6.73,6Z" transform="translate(-1.06 -1.29)"/><path fill="white" d="M28.58,41.21c.18-5.19,4.1-7.43,9.88-7.43,3,0,8.69.8,8.69,6.46v16H42.92V54a10.46,10.46,0,0,1-7.55,2.93c-5.5,0-7.55-3.17-7.55-6.47,0-1.82.18-5.86,6.73-6.61l6.11-1a2.2,2.2,0,0,0,2.07-2.32v-.05c0-2-1.3-2.73-4.53-2.73-3.43,0-4.78,1.19-4.78,3.39Zm14.34,4.23c-.63.46-1.51.79-6.4,1.37-1.93.25-3.82.59-3.82,3.33,0,2.2,1.63,3,3.86,3,2.91,0,6.37-1.53,6.37-4.11Z" transform="translate(-1.06 -1.29)"/><path fill="white" d="M68.55,56.28H63.81V43.15c0-4-1.43-5.69-4.62-5.69-2.28,0-5.31,1.56-5.31,6.43V56.28H49.25V34.56h4.63v2.92h0c1.27-1.73,3.55-3.89,6.67-3.89,2,0,8,1.14,8,8.16Z" transform="translate(-1.06 -1.29)"/><path fill="white" d="M86.24,41.51a4.75,4.75,0,0,0-5-4c-4.85,0-6.18,3.92-6.18,7.79,0,3.34.92,7.75,6.21,7.75,2.84,0,4.44-2.16,5-5h4.79c-.4,3.45-2.89,8.71-9.75,8.71-7.09,0-10.69-4.58-10.69-11.48,0-8,5-11.68,10.85-11.68,5.27,0,9.22,3.49,9.59,7.93Z" transform="translate(-1.06 -1.29)"/></svg>