<?xml version="1.0" encoding="UTF-8"?>
<svg width="503px" height="582px" viewBox="0 0 503 582" version="1.1" xmlns="http://www.w3.org/2000/svg" xmlns:xlink="http://www.w3.org/1999/xlink">
    <title>event-arrow</title>
    <defs>
        <path d="M29.0840004,67.7559998 C29.5240004,67.8439998 29.8613338,67.8293331 30.0960004,67.7119998 C31.1520005,67.2426665 31.5920005,66.4653331 31.4160005,65.3799998 C31.2400005,64.2946664 30.5946671,63.0773331 29.4800004,61.7279997 C28.3066671,60.2026664 27.0746671,58.6479997 25.7840004,57.0639996 C24.4933337,55.4799996 23.1733337,53.9253329 21.8240003,52.3999996 L21.8240003,52.3999996 L29.1280004,45.0079995 C29.8906671,44.1866661 30.3746671,43.3506661 30.5800005,42.4999994 C30.7853338,41.6493328 30.6240005,40.9013327 30.0960004,40.2559994 C29.0400004,39.7279994 28.0720004,39.5226661 27.1920004,39.6399994 C26.3120004,39.7573327 25.490667,40.0506661 24.7280004,40.5199994 C22.2640003,42.8666661 19.858667,45.2719995 17.5120003,47.7359995 C14.8133336,44.8613328 11.9093335,42.1919994 8.80000013,39.7279994 C7.74400011,39.082666 6.6880001,38.7453327 5.63200008,38.7159994 C4.57600007,38.686666 3.52000005,39.1999994 2.46400004,40.2559994 C2.3466667,40.3733327 2.22933337,40.5786661 2.11200003,40.8719994 C1.9946667,41.1653327 1.9506667,41.4733327 1.98000003,41.7959994 C2.00933336,42.1186661 2.14133336,42.3973328 2.37600004,42.6319994 C2.61066671,42.8666661 3.08000005,42.9839994 3.78400006,42.9839994 C5.42666675,44.5093328 7.02533344,46.0493328 8.58000013,47.6039995 C10.1346668,49.1586662 11.6746668,50.7279996 13.2000002,52.3119996 L13.2000002,52.3119996 L9.50400014,56.3599996 C8.27200012,57.709333 7.06933344,59.0879997 5.89600009,60.4959997 C5.25066674,61.3759997 4.7373334,62.2999997 4.35600006,63.2679997 C3.97466673,64.2359998 3.78400006,65.2773331 3.78400006,66.3919998 C3.78400006,67.0959998 4.19466673,67.5213331 5.01600007,67.6679998 C5.83733342,67.8146665 6.74666677,67.4773331 7.74400011,66.6559998 L7.74400011,66.6559998 L17.3360003,56.8879996 C18.6853336,58.3546663 19.990667,59.821333 21.2520003,61.2879997 C22.5133337,62.7546664 23.7893337,64.2213331 25.0800004,65.6879998 C25.3733337,65.9813331 25.754667,66.2746664 26.2240004,66.5679998 C26.6933337,66.8613331 27.1773337,67.1106665 27.6760004,67.3159998 C28.1746671,67.5213331 28.6440004,67.6679998 29.0840004,67.7559998 Z" id="path-1"></path>
    </defs>
    <g id="Page-1" stroke="none" stroke-width="1" fill="none" fill-rule="evenodd">
        <g id="event-arrow" transform="translate(2.000000, 2.000000)">
            <path d="M500,65.1385488 C326.554002,-8.27539131 193.134004,-19.6338355 99.7400052,31.0632163 C-40.3509929,107.108794 -39.5854846,412.72788 144.972791,412.72788 C329.531066,412.72788 337.761282,281.749954 418.480381,314.570215 C472.293114,336.450389 462.786939,403.260317 389.961856,515" id="Path-2" stroke="#072440" stroke-width="4.00000006" stroke-dasharray="12,10"></path>
            <g id="x" transform="translate(349.000000, 479.000000)" fill-rule="nonzero">
                <g>
                    <use fill="#000000" xlink:href="#path-1"></use>
                    <use fill="#072044" xlink:href="#path-1"></use>
                </g>
            </g>
        </g>
    </g>
</svg>