<svg xmlns="http://www.w3.org/2000/svg" style="display: none;"><symbol fill="currentColor" id="rotated-right-arrow" viewBox="0 0 375.01 375.01"><title>rotated-right-arrow</title><path d="M330.254,210.966c-56.916,1.224-110.16,25.704-167.076,28.764c-16.524,0.612-33.048-1.224-45.9-8.568 c23.256-4.283,45.288-12.239,61.812-27.54c17.749-15.911,19.584-45.287,8.568-66.095c-10.404-19.584-36.72-20.196-55.08-15.3 C89.125,132.63,59.75,184.65,84.229,221.369c-26.928,1.836-53.856,0-80.172,1.225c-5.508,0.611-5.508,8.567,0.612,8.567 c26.928,1.836,59.364,4.284,91.188,2.448c1.836,1.225,3.672,3.061,5.508,4.284c64.872,45.288,159.732-11.628,229.5-13.464 C338.821,223.817,338.821,210.354,330.254,210.966z M89.737,196.277c-6.732-25.091,15.3-46.511,35.496-56.916 c20.196-10.404,48.96-10.404,55.692,15.912c7.956,30.6-18.36,48.959-43.452,56.916c-11.628,3.672-22.644,6.12-34.272,7.344 C96.47,213.413,92.186,206.069,89.737,196.277z"/><path d="M371.869,211.577c-8.567-5.508-16.523-11.016-24.479-16.523c-6.732-4.896-13.464-10.404-21.42-12.24 c-6.12-1.836-12.24,7.344-6.732,11.627c6.732,4.896,14.076,9.18,20.809,13.464c4.896,3.061,9.792,6.732,14.075,9.792 c-4.896,2.448-9.792,4.284-14.688,6.732c-3.672,1.836-7.956,3.672-11.628,5.508c-1.224,0.612-2.448,1.836-3.061,3.06 c-1.836,2.448-0.611,1.225,0,0.612c-2.447,1.836-2.447,7.956,1.837,7.344l0,0c1.224,0.612,2.447,0.612,4.283,0.612 c4.284-1.224,9.181-3.06,13.464-4.896c9.181-3.673,18.36-7.345,26.929-12.24C376.153,220.758,376.153,214.025,371.869,211.577z"/></symbol><symbol fill="currentColor" id="sunrise" viewBox="0 0 512 512"><title>sunrise</title><path id="XMLID_650_" d="m436.442 217.65c1.595 3.851 5.318 6.176 9.242 6.176 1.275 0 2.571-.246 3.823-.765l27.329-11.32c5.103-2.113 7.525-7.963 5.412-13.065-2.114-5.102-7.963-7.525-13.066-5.411l-27.329 11.32c-5.102 2.113-7.525 7.962-5.411 13.065z"/><path id="XMLID_675_" d="m502 302.113h-92.333c-5.171-80.272-72.111-144-153.667-144s-148.495 63.728-153.667 144h-92.333c-5.522 0-10 4.478-10 10s4.478 10 10 10h201c5.522 0 10-4.478 10-10s-4.478-10-10-10h-88.627c5.132-69.235 63.103-124 133.627-124s128.495 54.765 133.627 124h-88.627c-5.522 0-10 4.478-10 10s4.478 10 10 10h201c5.522 0 10-4.478 10-10s-4.478-10-10-10z"/><path id="XMLID_676_" d="m256 134.164c5.522 0 10-4.478 10-10v-94.428c0-5.522-4.478-10-10-10s-10 4.478-10 10v94.429c0 5.522 4.478 9.999 10 9.999z"/><path id="XMLID_677_" d="m330.741 131.671c1.252.518 2.548.764 3.823.764 3.924 0 7.647-2.325 9.243-6.176l11.32-27.33c2.113-5.103-.31-10.952-5.412-13.066-5.103-2.109-10.952.311-13.066 5.412l-11.32 27.33c-2.113 5.102.31 10.952 5.412 13.066z"/><path id="XMLID_678_" d="m388.899 189.213c2.56 0 5.118-.977 7.071-2.929l67.726-67.726c3.905-3.905 3.905-10.237 0-14.143-3.906-3.904-10.236-3.904-14.143 0l-67.726 67.726c-3.905 3.905-3.905 10.237 0 14.143 1.954 1.953 4.513 2.929 7.072 2.929z"/><path id="XMLID_679_" d="m168.192 126.259c1.596 3.851 5.319 6.176 9.243 6.176 1.275 0 2.571-.246 3.823-.764 5.103-2.114 7.525-7.964 5.412-13.066l-11.32-27.33c-2.114-5.102-7.963-7.522-13.066-5.412-5.103 2.114-7.525 7.964-5.412 13.066z"/><path id="XMLID_680_" d="m35.163 231.462 27.329 11.32c1.252.519 2.548.765 3.823.765 3.924 0 7.647-2.325 9.242-6.176 2.114-5.103-.309-10.952-5.411-13.065l-27.329-11.32c-5.104-2.112-10.951.31-13.066 5.411-2.113 5.102.31 10.952 5.412 13.065z"/><path id="XMLID_681_" d="m116.029 186.285c1.953 1.952 4.512 2.929 7.071 2.929s5.118-.977 7.071-2.929c3.905-3.905 3.905-10.237 0-14.143l-67.726-67.726c-3.906-3.904-10.236-3.904-14.143 0-3.905 3.905-3.905 10.237 0 14.143z"/><path id="XMLID_682_" d="m424.643 375.745c-7.498 7.499-17.467 11.628-28.071 11.628s-20.573-4.129-28.071-11.628c-23.277-23.275-61.151-23.275-84.429 0-7.498 7.499-17.467 11.628-28.071 11.628s-20.573-4.129-28.071-11.628c-23.278-23.275-61.152-23.275-84.429 0-7.498 7.499-17.468 11.628-28.071 11.628-10.604 0-20.573-4.129-28.071-11.628-3.905-3.902-10.235-3.904-14.143 0-3.905 3.905-3.905 10.237 0 14.143 11.275 11.275 26.268 17.485 42.214 17.485s30.938-6.21 42.214-17.485c15.479-15.479 40.665-15.479 56.144 0 11.275 11.275 26.268 17.485 42.214 17.485s30.938-6.21 42.214-17.485c15.478-15.479 40.664-15.479 56.144 0 11.276 11.275 26.268 17.485 42.214 17.485s30.938-6.21 42.214-17.485c3.905-3.905 3.905-10.237 0-14.143-3.909-3.904-10.241-3.904-14.145 0z"/><path id="XMLID_683_" d="m354.357 460.664c-7.498 7.499-17.468 11.628-28.071 11.628-10.604 0-20.574-4.129-28.072-11.628-11.275-11.275-26.268-17.485-42.214-17.485s-30.938 6.21-42.214 17.485c-7.498 7.499-17.468 11.628-28.072 11.628s-20.573-4.129-28.071-11.628c-3.906-3.904-10.236-3.904-14.143 0-3.905 3.905-3.905 10.237 0 14.143 23.278 23.277 61.152 23.275 84.429 0 7.498-7.499 17.467-11.628 28.071-11.628s20.573 4.129 28.071 11.628c11.639 11.639 26.927 17.457 42.215 17.457 15.287 0 30.575-5.818 42.214-17.457 3.905-3.905 3.905-10.237 0-14.143-3.906-3.904-10.236-3.904-14.143 0z"/><path id="XMLID_684_" d="m263.069 319.184c1.86-1.86 2.931-4.44 2.931-7.07s-1.07-5.21-2.931-7.069c-1.859-1.86-4.439-2.931-7.069-2.931-2.641 0-5.21 1.07-7.07 2.931-1.86 1.859-2.93 4.439-2.93 7.069s1.069 5.21 2.93 7.07 4.44 2.93 7.07 2.93 5.21-1.07 7.069-2.93z"/></symbol><symbol fill="currentColor" id="music-notes" viewBox="-64 0 511 511.99901"><title>music-notes</title><path d="m116.355469 395.535156c-12.300781-12.148437-29.183594-19.660156-47.792969-19.660156-37.53125 0-68.0625 30.53125-68.0625 68.0625 0 37.527344 30.53125 68.0625 68.0625 68.0625s68.0625-30.535156 68.0625-68.0625v-239.0625l227.128906-86.640625v181.621094c-12.300781-12.144531-29.183594-19.660157-47.792968-19.660157-37.53125 0-68.0625 30.535157-68.0625 68.0625 0 37.53125 30.53125 68.0625 68.0625 68.0625 37.527343 0 68.0625-30.53125 68.0625-68.0625v-338.148437c0-6.90625-7.257813-11.945313-13.746094-9.46875l-40.125 15.304687c-12.15625 4.636719-4.949219 23.585938 7.226562 18.9375l26.375-10.058593v71.714843l-227.128906 86.640626v-71.714844l124.273438-47.40625c12.160156-4.636719 4.949218-23.585938-7.222657-18.941406l-130.796875 49.894531c-3.925781 1.5-6.523437 5.265625-6.523437 9.46875zm-47.792969 96.195313c-26.351562 0-47.792969-21.441407-47.792969-47.792969 0-26.355469 21.441407-47.792969 47.792969-47.792969s47.792969 21.4375 47.792969 47.792969c0 26.351562-21.441407 47.792969-47.792969 47.792969zm247.398438-95.679688c-26.355469 0-47.792969-21.4375-47.792969-47.792969 0-26.351562 21.4375-47.792968 47.792969-47.792968 26.351562 0 47.792968 21.441406 47.792968 47.792968 0 26.355469-21.441406 47.792969-47.792968 47.792969zm0 0"/><path d="m294.710938 50.238281c5.503906 0 10.132812-4.632812 10.132812-10.136719 0-5.507812-4.628906-10.132812-10.132812-10.132812-5.351563-.003906-9.878907 4.355469-10.117188 9.691406-.25 5.667969 4.429688 10.578125 10.117188 10.578125zm0 0"/></symbol><symbol fill="currentColor" id="treasure-map" viewBox="0 0 354.059 354.059"><title>treasure-map</title><path d="m312.747 32.458c-31.918 0-63.558 4.797-94.048 14.257l-75.307 23.373c-33.105 10.273-67.448 15.478-102.086 15.478-16.269 0-29.504-13.236-29.504-29.504s13.236-29.504 29.504-29.504h29.504v41.306h11.802v-47.208c0-3.257-2.638-5.901-5.901-5.901h-35.405c-22.771 0-41.306 18.529-41.306 41.306v224.233c0 22.777 18.535 41.306 41.306 41.306 35.824 0 71.353-5.387 105.584-16.003l75.313-23.373c17.95-5.57 36.479-9.388 55.144-11.566v62.744c0 3.257 2.638 5.901 5.901 5.901 39.046 0 70.811-31.764 70.811-70.811v-194.728c-.006-22.777-18.541-41.306-41.312-41.306zm29.504 236.035c0 30.543-23.332 55.746-53.108 58.714v-212.137h23.604c11.548 0 22.004-4.762 29.504-12.421zm-29.504-165.225h-29.504c-3.263 0-5.901 2.644-5.901 5.901v149.599c-19.851 2.231-39.554 6.261-58.643 12.179l-75.307 23.373c-33.104 10.273-67.447 15.478-102.085 15.478-16.269 0-29.504-13.236-29.504-29.504v-195.383c7.506 7.677 17.95 12.457 29.504 12.457 35.824 0 71.353-5.388 105.584-16.003l75.319-23.373c29.339-9.111 59.805-13.731 90.537-13.731 16.269 0 29.504 13.236 29.504 29.504s-13.236 29.503-29.504 29.503z"/><path d="m130.557 219.628c-6.733-5.382-12.539-10.026-12.539-16.044 0-3.363-1.387-6.397-4.013-8.775-2.779-2.514-11.218-10.161-60.425-5.293-13.655 1.351-25.327 10.144-30.443 22.949l-1.304 3.257c-2.891 7.223-3.423 15.035-1.54 22.589h.006c2.649 10.598 9.784 19.402 19.573 24.152 17.567 8.533 40.952 19.526 52.671 23.432 2.413.803 5.039 1.198 7.801 1.198 8.12 0 17.449-3.399 26.277-9.76 10.108-7.282 20.901-19.626 20.901-32.443 0-11.684-9.011-18.901-16.965-25.262zm-10.834 48.133c-8.639 6.22-17.608 8.875-23.444 6.934-11.696-3.9-37.128-15.991-51.249-22.854-6.638-3.216-11.477-9.194-13.283-16.393-1.28-5.134-.915-10.439 1.05-15.342l1.304-3.257c3.476-8.698 11.389-14.67 20.647-15.584 38.633-3.83 50.287.502 51.467 2.319 0 11.684 9.011 18.901 16.965 25.262 6.733 5.382 12.539 10.026 12.539 16.044.001 6.679-6.572 16.085-15.996 22.871z"/><path d="m200.63 215.385c-16.823 0-29.504 7.612-29.504 17.703s12.681 17.703 29.504 17.703 29.504-7.612 29.504-17.703-12.681-17.703-29.504-17.703zm0 23.604c-11.424 0-17.703-4.432-17.703-5.901s6.279-5.901 17.703-5.901 17.703 4.432 17.703 5.901-6.279 5.901-17.703 5.901z"/><path d="m58.531 155.084-.691-11.784c-4.148.242-8.326.732-12.404 1.458l2.065 11.619c3.624-.644 7.33-1.081 11.03-1.293z"/><path d="m128.096 164.643c-3.316-2.508-6.81-4.839-10.386-6.939l-5.972 10.185c3.181 1.865 6.284 3.936 9.229 6.166z"/><path d="m246.696 181.285h11.802v11.802h-11.802z" transform="matrix(.983 -.185 .185 .983 -30.214 49.847)"/><path d="m82.736 144.793c-4.083-.732-8.249-1.227-12.404-1.475l-.702 11.778c3.682.224 7.394.661 11.017 1.316z"/><path d="m223.494 185.635h11.802v11.802h-11.802z" transform="matrix(.983 -.185 .185 .983 -31.416 45.639)"/><path d="m106.588 152.039c-3.806-1.664-7.742-3.116-11.707-4.325l-3.434 11.294c3.535 1.074 7.034 2.36 10.409 3.841z"/><path d="m151.865 193.87c3.812 1.629 7.771 3.051 11.755 4.219l3.328-11.318c-3.541-1.044-7.057-2.307-10.45-3.759z"/><path d="m23.397 148.927h11.802v11.802h-11.802z" transform="matrix(.965 -.263 .263 .965 -39.644 13.134)"/><path d="m213.069 200.615-2.166-11.601c-3.617.679-7.317 1.145-11.005 1.387l.785 11.772c4.148-.271 8.314-.797 12.386-1.558z"/><path d="m188.799 190.489c-3.688-.189-7.4-.602-11.035-1.221l-1.983 11.637c4.083.696 8.261 1.157 12.415 1.369z"/><path d="m146.566 178.05c-3.198-1.835-6.32-3.883-9.282-6.084l-7.04 9.471c3.334 2.478 6.851 4.786 10.45 6.845z"/><path d="m267.269 69.592-13.531 13.531-13.531-13.531-8.344 8.344 13.531 13.531-11.247 11.247c-6.32-3.369-13.743-5.346-21.715-5.346-17.667 0-33.21 9.672-38.946 23.609-14.369.277-25.964 10.757-25.964 23.598 0 13.017 11.914 23.604 26.554 23.604 6.096 0 11.932-1.882 16.623-5.275 6.509 3.464 13.932 5.275 21.733 5.275 22.771 0 41.306-15.879 41.306-35.405 0-8.781-3.771-16.806-9.967-22.996l9.967-9.967 13.531 13.531 8.344-8.344-13.531-13.531 13.531-13.531zm-54.837 86.784c-6.951 0-13.714-1.994-19.042-5.618-1.015-.684-2.166-1.021-3.322-1.021-1.581 0-3.139.631-4.296 1.853-2.856 3.045-7.122 4.786-11.696 4.786-8.137 0-14.752-5.293-14.752-11.802s6.615-11.802 14.752-11.802c.926 0 1.835.112 2.72.248 3.051.454 5.948-1.505 6.638-4.514 2.573-11.206 14.776-19.337 28.997-19.337 16.269 0 29.504 10.586 29.504 23.604s-13.235 23.603-29.503 23.603z"/></symbol><symbol fill="currentColor" id="plane-ticket" viewBox="0 0 512 512"><title>plane-ticket</title><path d="m510.301 241.625-12.226-42.477c-.976-3.179-5.144-6.855-10.252-4.938-15.727 4.528-32.2-4.584-36.726-20.309-4.526-15.724 4.585-32.199 20.314-36.726 3.35-.74 7.361-4.22 6.054-9.632l-10.604-36.84c-3.178-11.043-10.465-20.187-20.52-25.747-10.055-5.561-21.673-6.871-32.716-3.694l-382.486 110.091c-11.043 3.179-20.187 10.466-25.747 20.521-5.56 10.055-6.872 21.674-3.693 32.716 5.967 16.432 13.702 48.757 10.978 66.114 0 4.131 3.298 7.506 7.427 7.602 12.563.292 23.522 8.585 27.43 20.242-2.783 2.239-6.004 4.008-9.587 5.13-3.942 1.234-6.177 5.39-5.034 9.359l5.169 17.958c-5.078 4.139-11.327 6.466-17.978 6.621-4.13.096-7.427 3.471-7.427 7.602v44.202c0 23.72 19.298 43.018 43.018 43.018h96.277c4.2 0 7.604-3.404 7.604-7.604 0-4.199-3.404-7.604-7.604-7.604h-96.277c-15.335 0-27.811-12.476-27.811-27.81v-37.384c5.2-.988 10.143-2.882 14.642-5.599l2.614 9.078c3.178 11.043 10.465 20.187 20.52 25.747 9.087 4.741 20.224 7.371 32.716 3.693l352.192-101.371c-4.561 7.023-7.213 15.397-7.213 24.377 0 22.464 16.59 41.126 38.162 44.38v37.079c0 15.335-12.476 27.81-27.81 27.81h-265.287c-4.2 0-7.604 3.404-7.604 7.604 0 4.199 3.404 7.604 7.604 7.604h265.288c23.72 0 43.017-19.298 43.017-43.018v-44.202c-.063-3.324-3.041-8.013-8.487-7.582-16.363 0-29.675-13.312-29.675-29.674s13.312-29.674 29.675-29.674c3.425.221 8.243-2.02 8.487-7.582v-4.305c3.95-3.338 7.306-7.395 9.884-12.056 5.56-10.058 6.871-21.676 3.692-32.72zm-482.417 42.277v-18.153c20.086-.754 35.478 19.138 29.485 38.335-6.56-10.362-17.227-17.802-29.485-20.182zm245.12 8.386 27.298-7.857 12.38 43.015-27.297 7.857zm220.296-25.305c-3.737 6.76-9.569 10.816-16.645 13.266l-113.734 32.736-.841-2.923c-1.162-4.036-5.382-6.364-9.409-5.204-4.035 1.162-6.366 5.375-5.204 9.41l.841 2.922-21.012 6.048-14.483-50.321c-.557-1.938-1.862-3.575-3.627-4.551-1.766-.976-3.845-1.211-5.783-.653l-41.912 12.063c-1.939.558-3.575 1.863-4.551 3.628s-1.211 3.845-.652 5.783l14.484 50.321-176.602 50.832c-7.141 2.056-14.652 1.207-21.152-2.387s-11.21-9.506-13.266-16.646l-10.341-35.928c18.258-9.242 28.14-30.644 23.24-50.568-5.394-21.93-25.583-35.369-47.621-34.136l-8.718-30.291c-2.054-7.139-1.207-14.651 2.388-21.151 3.594-6.5 9.506-11.211 16.645-13.266l254.138-73.149.842 2.923c.959 3.333 4 5.502 7.303 5.502.697 0 1.405-.097 2.108-.299 4.035-1.162 6.365-5.375 5.203-9.41l-.841-2.922 113.732-32.736c7.14-2.055 14.651-1.207 21.152 2.388 6.5 3.594 11.21 9.506 13.266 16.645l8.633 29.995c-19.83 9.093-30.611 31.616-24.397 53.204 6.214 21.586 27.304 34.936 48.948 32.092l10.256 35.632c2.054 7.14 1.207 14.651-2.388 21.151z"/><path d="m320.618 166.015-5.581-19.391c-1.162-4.036-5.383-6.365-9.41-5.204-4.035 1.162-6.366 5.375-5.204 9.41l5.581 19.391c1.115 2.919 4.599 6.584 9.409 5.204 4.037-1.162 6.367-5.375 5.205-9.41z"/><path d="m336.3 220.494-5.582-19.391c-1.162-4.036-5.38-6.363-9.411-5.204-4.035 1.162-6.365 5.375-5.203 9.411l5.582 19.391c1.116 2.919 4.599 6.583 9.41 5.204 4.036-1.162 6.366-5.375 5.204-9.411z"/><path d="m346.399 255.583c-1.162-4.037-5.383-6.365-9.41-5.204-4.035 1.161-6.366 5.375-5.204 9.41l5.581 19.391c1.115 2.919 4.599 6.584 9.41 5.204 4.035-1.161 6.366-5.375 5.204-9.41z"/><path d="m427.501 135.447c.976-1.765 1.211-3.845.652-5.783l-8.509-29.56c-1.161-4.035-5.379-6.365-9.41-5.204l-76.488 22.015c-4.035 1.162-6.366 5.375-5.204 9.41l8.508 29.56c1.548 2.91 3.168 6.389 9.41 5.204l76.489-22.016c1.939-.557 3.576-1.861 4.552-3.626zm-77.94 8.926-4.302-14.946 61.875-17.809 4.302 14.946z"/><path d="m415.531 251.265 40.864-11.762c4.035-1.162 6.366-5.375 5.204-9.411-1.162-4.037-5.382-6.365-9.409-5.204l-40.864 11.762c-4.035 1.162-6.366 5.375-5.204 9.41.959 3.333 4 5.502 7.303 5.502.696.002 1.404-.095 2.106-.297z"/><path d="m459.728 251.084-40.864 11.761c-4.035 1.162-6.366 5.375-5.204 9.41.959 3.334 4 5.503 7.303 5.503.696 0 1.405-.097 2.107-.298l40.864-11.761c4.035-1.162 6.366-5.375 5.204-9.41-1.163-4.038-5.382-6.366-9.41-5.205z"/><path d="m145.519 330.177-57.628 16.587c-4.035 1.162-6.366 5.375-5.204 9.41.959 3.333 4 5.502 7.303 5.502.697 0 1.405-.097 2.107-.298l57.628-16.587c4.035-1.162 6.366-5.375 5.204-9.41-1.162-4.037-5.382-6.365-9.41-5.204z"/><path d="m438.966 420.816c4.2 0 7.604-3.404 7.604-7.604v-29.439c0-4.199-3.404-7.604-7.604-7.604h-83.955c-4.2 0-7.604 3.404-7.604 7.604v29.439c0 4.199 3.404 7.604 7.604 7.604zm-76.352-29.438h68.748v14.232h-68.748z"/><path d="m317.781 404.573c4.2 0 7.604-3.404 7.604-7.604s-3.404-7.604-7.604-7.604h-80.834c-4.2 0-7.604 3.404-7.604 7.604s3.404 7.604 7.604 7.604z"/><path d="m237.094 210.782c-3.005.865-10.681 3.391-20.875 6.822l-43.455-41.14c-1.955-1.85-4.741-2.531-7.33-1.786l-23.051 6.635c-3.649 1.131-7.413 6.092-4.096 11.711l29.262 41.188c-25.284 8.696-49.367 17.047-56.787 19.622l-25.147-6.529c-5.205-1.449-11.909 4.398-8.476 11.197l19.243 32.923c2.348 2.369 3.674 4.64 9.032 3.355l13.79-4.731c4.163-.959 31.539-7.266 60.388-13.998l-2.888 50.442c.607 3.666 1.639 8.871 9.694 7.742l23.051-6.635c2.588-.745 4.588-2.802 5.26-5.409l14.935-57.947c10.454-2.512 18.301-4.454 21.305-5.319 17.176-4.944 23.785-26.48 24.482-28.919.799-2.795-.066-5.802-2.229-7.745-1.887-1.696-18.945-16.42-36.108-11.479zm-80.198-17.822 8.568-2.466 34.464 32.629c-5.553 1.891-11.414 3.894-17.383 5.94zm44.172 121.228-8.568 2.466 2.53-44.214c6.143-1.441 12.173-2.86 17.882-4.21zm45.676-69.876c-27.328 7.244-126.823 29.811-132.099 31.224l-8.275 2.839-6.87-11.753 9.67 2.511c7.192.265 9.395-2.477 23.287-6.719 23.813-8.251 64.468-22.249 84.306-28.945 12.082-4.085 21.297-7.139 24.537-8.072 5.651-1.628 12.966 1.991 17.729 5.155-2.334 5.203-6.583 12.118-12.285 13.76z"/></symbol></svg>